<svg width="16" height="17" viewBox="0 0 16 17" fill="none" xmlns="http://www.w3.org/2000/svg">
<path d="M14.7078 4.78672C14.6281 4.4899 14.4719 4.21923 14.2547 4.00177C14.0375 3.78432 13.767 3.62773 13.4703 3.54766C12.3781 3.25391 8 3.25391 8 3.25391C8 3.25391 3.62187 3.25391 2.52969 3.54609C2.23284 3.6259 1.96223 3.78241 1.74501 3.99991C1.52779 4.2174 1.37162 4.48821 1.29219 4.78516C1 5.87891 1 8.16016 1 8.16016C1 8.16016 1 10.4414 1.29219 11.5336C1.45312 12.1367 1.92812 12.6117 2.52969 12.7727C3.62187 13.0664 8 13.0664 8 13.0664C8 13.0664 12.3781 13.0664 13.4703 12.7727C14.0734 12.6117 14.5469 12.1367 14.7078 11.5336C15 10.4414 15 8.16016 15 8.16016C15 8.16016 15 5.87891 14.7078 4.78672ZM6.60938 10.2539V6.06641L10.2344 8.14453L6.60938 10.2539Z" fill="#333333"/>
</svg>
