<svg width="16" height="17" viewBox="0 0 16 17" fill="none" xmlns="http://www.w3.org/2000/svg">
<g clip-path="url(#clip0_1_51)">
<path d="M14.6667 4.82674H10V3.49341H14.6667V4.82674ZM15.8173 11.4934C15.5227 12.3581 14.4647 13.4934 12.4167 13.4934C10.3673 13.4934 8.70733 12.3407 8.70733 9.71007C8.70733 7.10341 10.2573 5.76341 12.3513 5.76341C14.406 5.76341 15.6607 6.95141 15.9347 8.71408C15.9867 9.05141 16.0073 9.50607 15.998 10.1407H10.6467C10.7333 12.2814 12.9687 12.3487 13.7053 11.4934H15.8173ZM10.6933 8.82674H14.0033C13.9333 7.79541 13.246 7.34741 12.352 7.34741C11.3747 7.34741 10.834 7.85941 10.6933 8.82674ZM4.31067 13.4854H0V3.50741H4.63533C8.286 3.56141 8.35533 7.13674 6.44867 8.11141C8.756 8.95141 8.83333 13.4854 4.31067 13.4854ZM2 7.49341H4.38933C6.06133 7.49341 6.32667 5.49341 4.18133 5.49341H2V7.49341ZM4.26067 9.49341H2V11.5041H4.22733C6.264 11.5041 6.13933 9.49341 4.26067 9.49341Z" fill="#333333"/>
</g>
<defs>
<clipPath id="clip0_1_51">
<rect width="16" height="16" fill="white" transform="translate(0 0.160156)"/>
</clipPath>
</defs>
</svg>
