<svg width="16" height="17" viewBox="0 0 16 17" fill="none" xmlns="http://www.w3.org/2000/svg">
<path d="M15.762 3.45138C15.2054 3.69804 14.6074 3.86471 13.9787 3.94004C14.6274 3.55191 15.1127 2.94102 15.344 2.22138C14.7346 2.58337 14.0676 2.83817 13.372 2.97471C12.9043 2.47529 12.2847 2.14426 11.6096 2.03303C10.9344 1.92179 10.2414 2.03657 9.63819 2.35955C9.03495 2.68252 8.55521 3.19562 8.27347 3.81918C7.99172 4.44274 7.92372 5.14188 8.08003 5.80804C6.84515 5.74604 5.63711 5.42508 4.53431 4.86598C3.43151 4.30689 2.45859 3.52215 1.67869 2.56271C1.41203 3.02271 1.25869 3.55604 1.25869 4.12404C1.2584 4.63537 1.38432 5.13887 1.62528 5.58987C1.86624 6.04086 2.2148 6.4254 2.64003 6.70938C2.14688 6.69369 1.66461 6.56043 1.23336 6.32071V6.36071C1.23331 7.07787 1.48138 7.77296 1.93548 8.32804C2.38958 8.88312 3.02174 9.264 3.7247 9.40604C3.26722 9.52985 2.78759 9.54809 2.32203 9.45938C2.52036 10.0765 2.90669 10.6161 3.42694 11.0027C3.94719 11.3893 4.57531 11.6035 5.22336 11.6154C4.12325 12.479 2.76462 12.9474 1.36603 12.9454C1.11828 12.9454 0.870746 12.931 0.624695 12.902C2.04435 13.8148 3.69692 14.2993 5.3847 14.2974C11.098 14.2974 14.2214 9.56538 14.2214 5.46138C14.2214 5.32804 14.218 5.19338 14.212 5.06004C14.8196 4.62069 15.344 4.07664 15.7607 3.45338L15.762 3.45138Z" fill="#333333"/>
</svg>
