<svg width="16" height="17" viewBox="0 0 16 17" fill="none" xmlns="http://www.w3.org/2000/svg">
<path d="M7.99421 6.07312C6.84734 6.07312 5.9114 7.00906 5.9114 8.15593C5.9114 9.30281 6.84734 10.2387 7.99421 10.2387C9.14109 10.2387 10.077 9.30281 10.077 8.15593C10.077 7.00906 9.14109 6.07312 7.99421 6.07312ZM14.2411 8.15593C14.2411 7.29343 14.2489 6.43875 14.2005 5.57781C14.152 4.57781 13.9239 3.69031 13.1927 2.95906C12.4598 2.22625 11.5739 1.99968 10.5739 1.95125C9.7114 1.90281 8.85671 1.91062 7.99578 1.91062C7.13328 1.91062 6.27859 1.90281 5.41765 1.95125C4.41765 1.99968 3.53015 2.22781 2.7989 2.95906C2.06609 3.69187 1.83953 4.57781 1.79109 5.57781C1.74265 6.44031 1.75046 7.295 1.75046 8.15593C1.75046 9.01687 1.74265 9.87312 1.79109 10.7341C1.83953 11.7341 2.06765 12.6216 2.7989 13.3528C3.53171 14.0856 4.41765 14.3122 5.41765 14.3606C6.28015 14.4091 7.13484 14.4012 7.99578 14.4012C8.85828 14.4012 9.71296 14.4091 10.5739 14.3606C11.5739 14.3122 12.4614 14.0841 13.1927 13.3528C13.9255 12.62 14.152 11.7341 14.2005 10.7341C14.2505 9.87312 14.2411 9.01843 14.2411 8.15593ZM7.99421 11.3606C6.22078 11.3606 4.78953 9.92937 4.78953 8.15593C4.78953 6.3825 6.22078 4.95125 7.99421 4.95125C9.76765 4.95125 11.1989 6.3825 11.1989 8.15593C11.1989 9.92937 9.76765 11.3606 7.99421 11.3606ZM11.3302 5.56843C10.9161 5.56843 10.5817 5.23406 10.5817 4.82C10.5817 4.40593 10.9161 4.07156 11.3302 4.07156C11.7442 4.07156 12.0786 4.40593 12.0786 4.82C12.0787 4.91832 12.0594 5.0157 12.0219 5.10656C11.9843 5.19742 11.9292 5.27997 11.8597 5.3495C11.7901 5.41902 11.7076 5.47414 11.6167 5.51171C11.5259 5.54928 11.4285 5.56856 11.3302 5.56843Z" fill="#333333"/>
</svg>
