<svg width="16" height="17" viewBox="0 0 16 17" fill="none" xmlns="http://www.w3.org/2000/svg">
<g clip-path="url(#clip0_1_39)">
<path d="M4.134 14.1602H1.2315V4.81316H4.134V14.1602ZM2.681 3.53816C1.753 3.53816 1 2.76916 1 1.84116C1 1.39533 1.1771 0.967758 1.49235 0.65251C1.8076 0.337261 2.23517 0.160156 2.681 0.160156C3.12683 0.160156 3.5544 0.337261 3.86965 0.65251C4.1849 0.967758 4.362 1.39533 4.362 1.84116C4.362 2.76916 3.609 3.53816 2.681 3.53816ZM14.997 14.1602H12.101V9.61016C12.101 8.52566 12.079 7.13516 10.592 7.13516C9.083 7.13516 8.8515 8.31316 8.8515 9.53216V14.1602H5.952V4.81316H8.7355V6.08816H8.776C9.1635 5.35366 10.11 4.57866 11.522 4.57866C14.4595 4.57866 14.9995 6.51316 14.9995 9.02566V14.1602H14.997Z" fill="#333333"/>
</g>
<defs>
<clipPath id="clip0_1_39">
<rect width="16" height="16" fill="white" transform="translate(0 0.160156)"/>
</clipPath>
</defs>
</svg>
