<svg width="18" height="18" viewBox="0 0 18 18" fill="none" xmlns="http://www.w3.org/2000/svg">
<path d="M9.15481 0.73877C4.58876 0.73877 0.886844 4.41174 0.886844 8.94298C0.886844 10.493 1.32038 11.9426 2.07327 13.1793L0.581055 17.5809L5.15865 16.1267C6.34316 16.7765 7.70545 17.1472 9.15481 17.1472C13.7215 17.1472 17.4232 13.4737 17.4232 8.94298C17.4232 4.41174 13.7215 0.73877 9.15481 0.73877ZM13.2662 12.0587C13.0717 12.5409 12.192 12.981 11.8038 13.0013C11.4161 13.0218 11.405 13.3018 9.29102 12.3834C7.1773 11.4649 5.9056 9.2314 5.80534 9.08757C5.705 8.94426 4.98654 7.92039 5.0253 6.89001C5.06433 5.85945 5.62857 5.37324 5.82996 5.17103C6.03113 4.96851 6.26177 4.93223 6.4026 4.92993C6.56906 4.92723 6.67688 4.92497 6.80008 4.92952C6.92316 4.93418 7.10805 4.90377 7.26812 5.32948C7.42812 5.75516 7.81109 6.8014 7.86008 6.90802C7.90902 7.01475 7.93933 7.13832 7.86391 7.27535C7.78827 7.41268 7.74955 7.49847 7.63981 7.61681C7.52948 7.73516 7.40771 7.88155 7.30929 7.97204C7.19951 8.07223 7.08485 8.18151 7.20027 8.39569C7.3156 8.60971 7.71354 9.31133 8.31978 9.88952C9.09891 10.6328 9.77083 10.8793 9.9776 10.9917C10.1849 11.1046 10.3087 11.092 10.4372 10.9567C10.5652 10.8214 10.9876 10.3648 11.1363 10.1609C11.285 9.95648 11.4243 9.99651 11.6153 10.0734C11.8062 10.1505 12.8243 10.6958 13.0316 10.8084C13.2388 10.9207 13.3772 10.9786 13.4267 11.0678C13.4762 11.1572 13.4606 11.5764 13.2662 12.0587Z" fill="#333333"/>
</svg>
